<svg width="103" height="37" viewBox="0 0 103 37" fill="none" xmlns="http://www.w3.org/2000/svg">
<path d="M8.34091 2.09091H0.142046L12.1932 37H21.7045L33.7386 2.09091H25.5568L17.1023 28.6136H16.7784L8.34091 2.09091ZM37.804 37H45.0653V10.8182H37.804V37ZM41.4517 7.44318C43.6165 7.44318 45.3892 5.78977 45.3892 3.76136C45.3892 1.75 43.6165 0.0965891 41.4517 0.0965891C39.304 0.0965891 37.5312 1.75 37.5312 3.76136C37.5312 5.78977 39.304 7.44318 41.4517 7.44318ZM58.1435 2.09091H50.8821V37H58.1435V2.09091ZM63.9602 37H71.2216V21.2841C71.2216 18.3864 73.0625 16.4602 75.483 16.4602C77.8693 16.4602 79.4716 18.0966 79.4716 20.6705V37H86.5114V21.0114C86.5114 18.3011 88.0625 16.4602 90.7045 16.4602C93.0227 16.4602 94.7614 17.9091 94.7614 20.8239V37H102.006V19.392C102.006 13.7159 98.6307 10.4773 93.7557 10.4773C89.9205 10.4773 86.9375 12.4375 85.8636 15.4375H85.5909C84.7557 12.4034 82.0795 10.4773 78.483 10.4773C74.9545 10.4773 72.2784 12.3523 71.1875 15.4375H70.8807V10.8182H63.9602V37Z" fill="white"/>
</svg>
