<svg width="279" height="100" viewBox="0 0 279 100" fill="none" xmlns="http://www.w3.org/2000/svg">
<path d="M8.34091 2.09091H0.142046L12.1932 37H21.7045L33.7386 2.09091H25.5568L17.1023 28.6136H16.7784L8.34091 2.09091ZM37.804 37H45.0653V10.8182H37.804V37ZM41.4517 7.44318C43.6165 7.44318 45.3892 5.78977 45.3892 3.76136C45.3892 1.75 43.6165 0.0965891 41.4517 0.0965891C39.304 0.0965891 37.5312 1.75 37.5312 3.76136C37.5312 5.78977 39.304 7.44318 41.4517 7.44318ZM58.1435 2.09091H50.8821V37H58.1435V2.09091ZM63.9602 37H71.2216V21.2841C71.2216 18.3864 73.0625 16.4602 75.483 16.4602C77.8693 16.4602 79.4716 18.0966 79.4716 20.6705V37H86.5114V21.0114C86.5114 18.3011 88.0625 16.4602 90.7045 16.4602C93.0227 16.4602 94.7614 17.9091 94.7614 20.8239V37H102.006V19.392C102.006 13.7159 98.6307 10.4773 93.7557 10.4773C89.9205 10.4773 86.9375 12.4375 85.8636 15.4375H85.5909C84.7557 12.4034 82.0795 10.4773 78.483 10.4773C74.9545 10.4773 72.2784 12.3523 71.1875 15.4375H70.8807V10.8182H63.9602V37ZM140.298 37.5455C150.27 37.5455 158.332 29.483 158.298 19.5455C158.264 9.60795 150.27 1.54545 140.298 1.54545C130.395 1.54545 122.332 9.60795 122.298 19.5455C122.264 29.483 130.395 37.5455 140.298 37.5455ZM140.298 34.5455C132.014 34.5455 125.264 27.7955 125.298 19.5625C125.332 11.2784 132.048 4.54545 140.298 4.54545C148.582 4.54545 155.264 11.2443 155.298 19.5625C155.332 27.8295 148.616 34.5455 140.298 34.5455ZM130.446 19.5455C130.446 25.1364 134.98 29.6705 140.571 29.6705C145.139 29.6705 148.668 26.6193 149.52 22.4602H146.366C145.651 24.9489 143.452 26.6705 140.571 26.6705C136.634 26.6705 133.446 23.483 133.446 19.5455C133.446 15.608 136.634 12.4205 140.571 12.4205C143.452 12.4205 145.889 14.142 146.588 16.6307H149.759C148.889 12.4716 145.139 9.42045 140.571 9.42045C134.98 9.42045 130.446 13.9545 130.446 19.5455ZM179.652 37H201.351V34.1364H184.084V33.9148L192.743 24.25C198.538 17.8409 200.26 14.9432 200.26 11.0739C200.26 5.75568 196.067 1.61364 190.22 1.61364C184.322 1.61364 179.942 5.77273 179.942 11.5511H182.993C182.993 7.40909 185.822 4.42614 190.135 4.42614C194.192 4.42614 197.26 7.08523 197.26 11.0739C197.26 14.3807 195.504 16.8352 191.055 21.8466L179.652 34.6648V37ZM219.79 37.4773C227.136 37.4773 231.449 30.8466 231.449 19.5455C231.449 8.29545 227.102 1.61364 219.79 1.61364C212.477 1.61364 208.131 8.29545 208.131 19.5455C208.131 30.8466 212.443 37.4773 219.79 37.4773ZM219.79 34.6136C214.42 34.6136 211.216 29.108 211.216 19.5455C211.216 10 214.438 4.42614 219.79 4.42614C225.142 4.42614 228.364 10 228.364 19.5455C228.364 29.108 225.159 34.6136 219.79 34.6136ZM238.386 37H260.085V34.1364H242.818V33.9148L251.477 24.25C257.273 17.8409 258.994 14.9432 258.994 11.0739C258.994 5.75568 254.801 1.61364 248.955 1.61364C243.057 1.61364 238.676 5.77273 238.676 11.5511H241.727C241.727 7.40909 244.557 4.42614 248.869 4.42614C252.926 4.42614 255.994 7.08523 255.994 11.0739C255.994 14.3807 254.239 16.8352 249.79 21.8466L238.386 34.6648V37ZM278.456 2.09091H275.132L266.882 7.5625V10.8693L275.064 5.43182H275.268V37H278.456V2.09091ZM0.977273 99.9091H2.50284V92.571H2.6392C3.15909 93.7727 4.28409 95.2727 6.66193 95.2727C9.86648 95.2727 12.0483 92.5455 12.0483 88.4886C12.0483 84.4489 9.875 81.7301 6.63636 81.7301C4.23295 81.7301 3.16761 83.2301 2.6392 84.4062H2.4517V81.9091H0.977273V99.9091ZM2.47727 88.4631C2.47727 85.3267 3.91761 83.1108 6.47443 83.1108C9.10795 83.1108 10.5227 85.446 10.5227 88.4631C10.5227 91.5142 9.08239 93.8835 6.47443 93.8835C3.94318 93.8835 2.47727 91.625 2.47727 88.4631ZM20.4581 95.2727C23.8501 95.2727 26.2195 92.5028 26.2195 88.5142C26.2195 84.5 23.8501 81.7301 20.4581 81.7301C17.0661 81.7301 14.6967 84.5 14.6967 88.5142C14.6967 92.5028 17.0661 95.2727 20.4581 95.2727ZM20.4581 93.8835C17.7393 93.8835 16.2223 91.446 16.2223 88.5142C16.2223 85.5824 17.7393 83.1108 20.4581 83.1108C23.1768 83.1108 24.6939 85.5824 24.6939 88.5142C24.6939 91.446 23.1768 93.8835 20.4581 93.8835ZM32.0107 95H33.5788L36.6811 84.2699H36.843L39.9453 95H41.5135L45.468 81.9091H43.8658L40.7635 92.6818H40.6442L37.576 81.9091H35.9652L32.8714 92.7074H32.7607L29.6584 81.9091H28.0561L32.0107 95ZM53.2642 95.2727C55.8892 95.2727 57.6534 93.8494 58.25 92.2045L56.8097 91.7358C56.3068 92.9119 55.1222 93.8835 53.2642 93.8835C50.5881 93.8835 48.892 91.9318 48.8239 88.9062H58.5739V88.1562C58.5739 83.7841 55.8722 81.7301 53.0341 81.7301C49.642 81.7301 47.2983 84.5682 47.2983 88.5312C47.2983 92.5028 49.5994 95.2727 53.2642 95.2727ZM48.8324 87.5682C48.9943 85.1307 50.6392 83.1108 53.0341 83.1108C55.3778 83.1108 57.0227 85.0455 57.0227 87.5682H48.8324ZM61.9169 95H63.4339V86.5455C63.4339 84.6023 64.9254 83.196 66.9709 83.196C67.3714 83.196 67.7464 83.2642 67.8828 83.2812V81.7386C67.6783 81.7301 67.3288 81.7131 67.0817 81.7131C65.4368 81.7131 64.0305 82.5994 63.5021 83.9205H63.3913V81.9091H61.9169V95ZM75.3658 95.2727C77.9908 95.2727 79.755 93.8494 80.3516 92.2045L78.9112 91.7358C78.4084 92.9119 77.2237 93.8835 75.3658 93.8835C72.6896 93.8835 70.9936 91.9318 70.9254 88.9062H80.6754V88.1562C80.6754 83.7841 77.9737 81.7301 75.1357 81.7301C71.7436 81.7301 69.3999 84.5682 69.3999 88.5312C69.3999 92.5028 71.701 95.2727 75.3658 95.2727ZM70.9339 87.5682C71.0959 85.1307 72.7408 83.1108 75.1357 83.1108C77.4794 83.1108 79.1243 85.0455 79.1243 87.5682H70.9339ZM88.7315 95.2727C91.1094 95.2727 92.2173 93.7642 92.7543 92.571H92.9332V95H94.4162V77.5455H92.8906V84.4062H92.7543C92.2344 83.2301 91.152 81.7301 88.7571 81.7301C85.527 81.7301 83.3452 84.4574 83.3452 88.4886C83.3452 92.554 85.5185 95.2727 88.7315 95.2727ZM88.9105 93.8835C86.3026 93.8835 84.8707 91.5142 84.8707 88.4631C84.8707 85.446 86.2855 83.1108 88.9105 83.1108C91.4673 83.1108 92.9162 85.3267 92.9162 88.4631C92.9162 91.625 91.4503 93.8835 88.9105 93.8835ZM105.803 95H107.277V92.571H107.464C107.993 93.7727 109.101 95.2727 111.487 95.2727C114.7 95.2727 116.874 92.554 116.874 88.4886C116.874 84.4574 114.692 81.7301 111.462 81.7301C109.067 81.7301 107.984 83.2301 107.464 84.4062H107.328V77.5455H105.803V95ZM107.303 88.4631C107.303 85.3267 108.743 83.1108 111.3 83.1108C113.925 83.1108 115.348 85.446 115.348 88.4631C115.348 91.5142 113.908 93.8835 111.3 93.8835C108.76 93.8835 107.303 91.625 107.303 88.4631ZM120.794 99.9091C122.43 99.9091 123.632 98.9716 124.331 97.071L129.879 81.9347L128.226 81.9091L124.339 92.9972H124.22L120.334 81.9091H118.689L123.504 95.1278L123.027 96.4574C122.303 98.4347 121.28 98.7841 119.737 98.2983L119.328 99.6364C119.635 99.7812 120.197 99.9091 120.794 99.9091ZM144.745 81.9091H141.975V78.7727H140.45V81.9091H138.498V83.2301H140.45V91.9403C140.45 94.0795 142.137 95.196 143.816 95.196C144.447 95.196 144.873 95.0767 145.163 94.9659L144.839 93.5938C144.626 93.6534 144.353 93.7131 143.952 93.7131C142.921 93.7131 141.975 93.2273 141.975 91.5824V83.2301H144.745V81.9091ZM148.19 95H149.707V86.6136C149.707 84.5767 151.062 83.1278 152.878 83.1278C154.668 83.1278 155.707 84.321 155.707 86.0938V95H157.259V86.3835C157.259 84.5 158.384 83.1278 160.378 83.1278C162.108 83.1278 163.259 84.1676 163.259 86.2301V95H164.776V86.2301C164.776 83.2983 163.267 81.7386 160.838 81.7386C158.929 81.7386 157.548 82.6676 156.96 84.1165H156.849C156.27 82.6335 155.119 81.7386 153.312 81.7386C151.599 81.7386 150.321 82.5653 149.801 83.9205H149.665V81.9091H148.19V95ZM173.505 95.2727C175.883 95.2727 176.991 93.7642 177.528 92.571H177.707V95H179.19V77.5455H177.664V84.4062H177.528C177.008 83.2301 175.925 81.7301 173.531 81.7301C170.3 81.7301 168.119 84.4574 168.119 88.4886C168.119 92.554 170.292 95.2727 173.505 95.2727ZM173.684 93.8835C171.076 93.8835 169.644 91.5142 169.644 88.4631C169.644 85.446 171.059 83.1108 173.684 83.1108C176.241 83.1108 177.69 85.3267 177.69 88.4631C177.69 91.625 176.224 93.8835 173.684 93.8835ZM183.826 95H185.3V92.571H185.488C186.016 93.7727 187.124 95.2727 189.511 95.2727C192.724 95.2727 194.897 92.554 194.897 88.4886C194.897 84.4574 192.715 81.7301 189.485 81.7301C187.09 81.7301 186.008 83.2301 185.488 84.4062H185.352V77.5455H183.826V95ZM185.326 88.4631C185.326 85.3267 186.766 83.1108 189.323 83.1108C191.948 83.1108 193.371 85.446 193.371 88.4631C193.371 91.5142 191.931 93.8835 189.323 93.8835C186.783 93.8835 185.326 91.625 185.326 88.4631Z" fill="#E2E2E2"/>
<path d="M137.586 99.6278H196.227V100.898H137.586V99.6278Z" fill="#E2E2E2"/>
</svg>
